<?xml version="1.0" encoding="UTF-8" standalone="no"?>
<svg
   width="160"
   height="240"
   viewBox="0 0 160 240"
   version="1.1"
   xml:space="preserve"
   style="clip-rule:evenodd;fill-rule:evenodd;stroke-linejoin:round;stroke-miterlimit:2"
   id="svg1"
   sodipodi:docname="openhab-logo-in.svg"
   inkscape:version="1.3.2 (091e20e, 2023-11-25, custom)"
   xmlns:inkscape="http://www.inkscape.org/namespaces/inkscape"
   xmlns:sodipodi="http://sodipodi.sourceforge.net/DTD/sodipodi-0.dtd"
   xmlns="http://www.w3.org/2000/svg"
   xmlns:svg="http://www.w3.org/2000/svg"><defs
   id="defs1"><clipPath
     clipPathUnits="userSpaceOnUse"
     id="clipPath3"><rect
       style="fill:#000000;stroke-width:0.948362"
       id="rect3"
       width="147.5"
       height="144"
       x="-7"
       y="0" /></clipPath></defs><sodipodi:namedview
   id="namedview1"
   pagecolor="#ffffff"
   bordercolor="#000000"
   borderopacity="0.25"
   inkscape:showpageshadow="2"
   inkscape:pageopacity="0.0"
   inkscape:pagecheckerboard="true"
   inkscape:deskcolor="#d1d1d1"
   showgrid="false"
   inkscape:zoom="2"
   inkscape:cx="246.75"
   inkscape:cy="41.75"
   inkscape:window-width="2288"
   inkscape:window-height="1353"
   inkscape:window-x="2617"
   inkscape:window-y="0"
   inkscape:window-maximized="0"
   inkscape:current-layer="svg1" />
    <g
   id="logo"
   clip-path="url(#clipPath3)"
   style="fill:#ffffff;fill-opacity:1"
   transform="translate(9.75,9.9999966)">
        <path
   id="empower_2_"
   d="m 266.92,118.764 h -10.793 c 0.043,1.61 0.539,2.84 1.493,3.695 0.953,0.855 2.186,1.287 3.704,1.287 1.649,0 3.095,-0.257 4.335,-0.769 l 0.492,2 c -1.466,0.654 -3.198,0.984 -5.195,0.984 -2.318,0 -4.161,-0.687 -5.537,-2.062 -1.372,-1.372 -2.057,-3.198 -2.057,-5.472 0,-2.277 0.66,-4.182 1.977,-5.719 1.318,-1.537 3.085,-2.305 5.308,-2.305 2.051,0 3.623,0.682 4.719,2.048 1.097,1.369 1.644,3.046 1.644,5.024 0,0.563 -0.028,0.993 -0.09,1.289 z m -10.761,-2.059 h 8.086 c 0,-1.281 -0.328,-2.314 -0.99,-3.098 -0.66,-0.785 -1.603,-1.175 -2.822,-1.175 -1.159,0 -2.117,0.39 -2.875,1.175 -0.76,0.784 -1.224,1.817 -1.399,3.098 z m 14.295,8.916 V 114.83 c 0,-1.649 -0.04,-3.013 -0.122,-4.088 h 2.489 l 0.216,2.427 c 1.106,-1.843 2.724,-2.766 4.858,-2.766 0.984,0 1.86,0.267 2.623,0.8 0.764,0.532 1.342,1.27 1.742,2.213 1.219,-2.007 2.92,-3.013 5.104,-3.013 1.475,0 2.69,0.559 3.642,1.674 0.954,1.119 1.431,2.753 1.431,4.906 v 8.638 h -2.798 v -8.298 c 0,-1.479 -0.283,-2.611 -0.85,-3.399 -0.569,-0.79 -1.385,-1.185 -2.44,-1.185 -0.912,0 -1.722,0.349 -2.433,1.053 -0.714,0.698 -1.072,1.603 -1.072,2.697 v 9.132 h -2.798 v -8.793 c 0,-1.262 -0.282,-2.26 -0.845,-2.992 -0.563,-0.734 -1.337,-1.097 -2.321,-1.097 -0.954,0 -1.794,0.401 -2.526,1.2 -0.733,0.798 -1.102,1.732 -1.102,2.795 v 8.887 z m 26.47,6.086 V 115.63 c 0,-1.997 -0.039,-3.628 -0.122,-4.888 h 2.552 l 0.154,2.582 h 0.06 c 1.24,-1.947 3.085,-2.921 5.534,-2.921 1.865,0 3.418,0.701 4.657,2.111 1.241,1.41 1.861,3.218 1.861,5.422 0,2.449 -0.665,4.396 -2.003,5.845 -1.337,1.449 -3.009,2.18 -5.008,2.18 -1.013,0 -1.941,-0.206 -2.786,-0.617 -0.846,-0.408 -1.507,-0.994 -1.977,-1.752 h -0.063 v 8.115 z m 2.859,-14.632 v 2.398 c 0,1.199 0.422,2.204 1.256,3.017 0.836,0.815 1.84,1.225 3.02,1.225 1.434,0 2.571,-0.513 3.411,-1.533 0.84,-1.018 1.26,-2.393 1.26,-4.122 0,-1.561 -0.415,-2.846 -1.246,-3.861 -0.83,-1.012 -1.93,-1.52 -3.303,-1.52 -0.882,0 -1.693,0.251 -2.428,0.759 -0.739,0.505 -1.252,1.126 -1.539,1.858 -0.286,0.732 -0.431,1.326 -0.431,1.779 z m 29.362,0.953 c 0,1.599 -0.334,2.997 -1,4.196 -0.666,1.199 -1.599,2.12 -2.797,2.766 -1.2,0.647 -2.495,0.971 -3.889,0.971 -2.173,0 -3.965,-0.715 -5.382,-2.134 -1.414,-1.42 -2.119,-3.259 -2.119,-5.523 0,-2.408 0.732,-4.329 2.192,-5.758 1.461,-1.432 3.3,-2.143 5.524,-2.143 2.214,0 4.014,0.707 5.395,2.126 1.384,1.42 2.076,3.253 2.076,5.499 z m -12.267,0.184 c 0,1.629 0.435,2.973 1.307,4.033 0.871,1.06 1.962,1.592 3.274,1.592 1.342,0 2.464,-0.532 3.361,-1.598 0.897,-1.064 1.343,-2.44 1.343,-4.118 0,-1.55 -0.41,-2.871 -1.235,-3.962 -0.824,-1.093 -1.951,-1.636 -3.377,-1.636 -1.445,0 -2.582,0.538 -3.417,1.621 -0.836,1.08 -1.256,2.437 -1.256,4.068 z m 13.773,-7.47 h 2.919 c 1.949,7.215 2.993,11.293 3.137,12.235 h 0.062 c 0.112,-0.799 1.383,-4.878 3.811,-12.235 h 2.43 c 2.203,6.895 3.433,10.975 3.688,12.235 h 0.063 c 0.286,-1.536 0.645,-3.043 1.075,-4.518 l 2.245,-7.717 h 2.828 l -4.919,14.879 h -2.643 c -1.691,-5.205 -2.644,-8.168 -2.86,-8.88 -0.216,-0.713 -0.462,-1.716 -0.737,-3.016 h -0.062 c -0.338,1.546 -0.785,3.123 -1.337,4.734 l -2.477,7.162 h -2.643 z m 37.201,8.022 H 357.06 c 0.04,1.61 0.538,2.84 1.492,3.695 0.953,0.855 2.186,1.287 3.703,1.287 1.65,0 3.097,-0.257 4.335,-0.769 l 0.492,2 c -1.466,0.654 -3.197,0.984 -5.195,0.984 -2.317,0 -4.16,-0.687 -5.534,-2.062 -1.374,-1.372 -2.059,-3.198 -2.059,-5.472 0,-2.277 0.66,-4.182 1.977,-5.719 1.317,-1.537 3.084,-2.305 5.307,-2.305 2.052,0 3.624,0.682 4.719,2.048 1.099,1.369 1.645,3.046 1.645,5.024 0,0.563 -0.029,0.993 -0.09,1.289 z m -10.761,-2.059 h 8.086 c 0,-1.281 -0.329,-2.314 -0.99,-3.098 -0.661,-0.785 -1.604,-1.175 -2.824,-1.175 -1.157,0 -2.115,0.39 -2.873,1.175 -0.76,0.784 -1.225,1.817 -1.399,3.098 z m 14.295,8.916 v -10.144 c 0,-1.927 -0.042,-3.506 -0.122,-4.735 h 2.52 l 0.184,2.983 c 0.381,-1.046 0.959,-1.863 1.737,-2.447 0.778,-0.583 1.625,-0.875 2.537,-0.875 0.195,0 0.451,0.022 0.767,0.063 v 2.703 c -0.276,-0.06 -0.602,-0.093 -0.983,-0.093 -1.034,0 -1.921,0.407 -2.663,1.216 -0.744,0.811 -1.117,1.962 -1.117,3.459 v 7.87 z m 13.312,0 h -2.858 v -14.879 h 2.858 z m 0.4,-19.399 c 0,0.512 -0.169,0.941 -0.508,1.291 -0.337,0.347 -0.782,0.523 -1.336,0.523 -0.533,0 -0.97,-0.176 -1.307,-0.523 -0.338,-0.35 -0.508,-0.779 -0.508,-1.291 0,-0.501 0.174,-0.927 0.519,-1.271 0.342,-0.344 0.784,-0.514 1.326,-0.514 0.524,0 0.959,0.17 1.301,0.514 0.344,0.344 0.513,0.77 0.513,1.271 z m 4.182,19.399 V 114.83 c 0,-1.649 -0.043,-3.013 -0.123,-4.088 h 2.521 l 0.246,2.522 c 0.47,-0.865 1.163,-1.556 2.074,-2.076 0.912,-0.522 1.912,-0.785 2.999,-0.785 1.557,0 2.852,0.549 3.889,1.65 1.034,1.102 1.552,2.716 1.552,4.838 v 8.73 h -2.861 v -8.424 c 0,-1.405 -0.301,-2.495 -0.906,-3.269 -0.603,-0.773 -1.481,-1.157 -2.629,-1.157 -1.023,0 -1.931,0.384 -2.72,1.153 -0.79,0.766 -1.184,1.706 -1.184,2.81 v 8.887 z m 30.868,-10.852 v 8.638 c 0,3.239 -0.704,5.495 -2.107,6.765 -1.404,1.27 -3.315,1.905 -5.735,1.905 -2.153,0 -3.883,-0.431 -5.195,-1.29 l 0.709,-2.183 c 1.322,0.82 2.836,1.228 4.548,1.228 1.588,0 2.813,-0.438 3.668,-1.321 0.856,-0.881 1.28,-2.173 1.28,-3.871 l -0.059,-1.633 c -1.078,1.704 -2.716,2.553 -4.92,2.553 -1.874,0 -3.433,-0.695 -4.679,-2.086 -1.245,-1.387 -1.867,-3.11 -1.867,-5.17 0,-2.386 0.686,-4.304 2.055,-5.742 1.366,-1.442 2.994,-2.159 4.891,-2.159 2.255,0 3.884,0.861 4.89,2.583 l 0.121,-2.244 h 2.523 c -0.083,0.892 -0.123,2.233 -0.123,4.027 z m -2.86,4.367 v -2.431 c 0,-1.107 -0.374,-2.065 -1.123,-2.875 -0.749,-0.809 -1.728,-1.215 -2.936,-1.215 -1.333,0 -2.424,0.509 -3.274,1.525 -0.851,1.014 -1.278,2.349 -1.278,4.009 0,1.527 0.412,2.778 1.227,3.758 0.813,0.977 1.911,1.469 3.293,1.469 1.097,0 2.055,-0.396 2.869,-1.182 0.816,-0.788 1.222,-1.809 1.222,-3.058 z m 14.756,-11.161 2.798,-0.831 v 3.598 h 3.965 v 2.182 h -3.965 v 7.748 c 0,1.034 0.17,1.777 0.504,2.232 0.332,0.456 0.857,0.688 1.588,0.688 0.664,0 1.209,-0.062 1.628,-0.185 l 0.124,2.153 c -0.708,0.266 -1.558,0.401 -2.552,0.401 -2.726,0 -4.09,-1.703 -4.09,-5.107 v -7.93 h -2.336 v -2.182 h 2.336 z m 9.931,17.646 v -21.889 h 2.859 v 9.377 h 0.062 c 0.5,-0.84 1.206,-1.502 2.1,-1.983 0.897,-0.481 1.812,-0.723 2.758,-0.723 1.536,0 2.816,0.549 3.841,1.65 1.028,1.102 1.54,2.716 1.54,4.838 v 8.73 h -2.861 v -8.424 c 0,-1.405 -0.302,-2.495 -0.907,-3.269 -0.602,-0.773 -1.48,-1.157 -2.629,-1.157 -0.972,0 -1.865,0.363 -2.678,1.096 -0.816,0.734 -1.226,1.68 -1.226,2.838 v 8.916 z m 30.067,-6.857 h -10.791 c 0.04,1.61 0.54,2.84 1.492,3.695 0.952,0.855 2.186,1.287 3.703,1.287 1.652,0 3.097,-0.257 4.335,-0.769 l 0.492,2 c -1.464,0.654 -3.197,0.984 -5.195,0.984 -2.317,0 -4.16,-0.687 -5.533,-2.062 -1.374,-1.372 -2.06,-3.198 -2.06,-5.472 0,-2.277 0.66,-4.182 1.978,-5.719 1.317,-1.537 3.084,-2.305 5.308,-2.305 2.048,0 3.624,0.682 4.719,2.048 1.095,1.369 1.644,3.046 1.644,5.024 0,0.563 -0.03,0.993 -0.092,1.289 z m -10.761,-2.059 h 8.087 c 0,-1.281 -0.328,-2.314 -0.987,-3.098 -0.662,-0.785 -1.605,-1.175 -2.824,-1.175 -1.16,0 -2.119,0.39 -2.875,1.175 -0.76,0.784 -1.224,1.817 -1.401,3.098 z m 19.953,8.209 0.676,-2.184 c 1.209,0.74 2.46,1.107 3.751,1.107 0.921,0 1.634,-0.194 2.138,-0.583 0.501,-0.391 0.752,-0.91 0.752,-1.567 0,-0.626 -0.204,-1.139 -0.618,-1.534 -0.417,-0.395 -1.145,-0.762 -2.179,-1.112 -2.727,-0.93 -4.089,-2.336 -4.089,-4.211 0,-1.25 0.485,-2.301 1.454,-3.151 0.97,-0.852 2.255,-1.276 3.862,-1.276 1.5,0 2.77,0.308 3.815,0.923 l -0.708,2.059 c -1.035,-0.594 -2.102,-0.891 -3.195,-0.891 -0.762,0 -1.359,0.185 -1.801,0.557 -0.439,0.375 -0.66,0.858 -0.66,1.439 0,0.526 0.19,0.965 0.562,1.323 0.374,0.36 1.149,0.747 2.326,1.17 1.437,0.511 2.466,1.116 3.091,1.817 0.625,0.702 0.939,1.585 0.939,2.641 0,1.353 -0.513,2.443 -1.545,3.274 -1.029,0.829 -2.433,1.246 -4.205,1.246 -1.628,0 -3.084,-0.35 -4.366,-1.047 z m 13.68,0.707 V 114.83 c 0,-1.649 -0.041,-3.013 -0.123,-4.088 h 2.49 l 0.216,2.427 c 1.106,-1.843 2.726,-2.766 4.858,-2.766 0.985,0 1.862,0.267 2.624,0.8 0.761,0.532 1.343,1.27 1.741,2.213 1.219,-2.007 2.919,-3.013 5.103,-3.013 1.475,0 2.693,0.559 3.644,1.674 0.953,1.119 1.429,2.753 1.429,4.906 v 8.638 h -2.795 v -8.298 c 0,-1.479 -0.285,-2.611 -0.852,-3.399 -0.568,-0.79 -1.385,-1.185 -2.438,-1.185 -0.915,0 -1.725,0.349 -2.434,1.053 -0.714,0.698 -1.073,1.603 -1.073,2.697 v 9.132 h -2.797 v -8.793 c 0,-1.262 -0.28,-2.26 -0.846,-2.992 -0.562,-0.734 -1.338,-1.097 -2.321,-1.097 -0.954,0 -1.793,0.401 -2.526,1.2 -0.734,0.798 -1.101,1.732 -1.101,2.795 v 8.887 z m 37.353,-9.009 v 5.443 c 0,1.475 0.085,2.666 0.249,3.566 H 529.9 l -0.337,-1.906 c -1.118,1.496 -2.686,2.246 -4.704,2.246 -1.414,0 -2.547,-0.42 -3.396,-1.256 -0.853,-0.837 -1.276,-1.842 -1.276,-3.018 0,-1.805 0.783,-3.184 2.351,-4.135 1.569,-0.955 3.859,-1.431 6.871,-1.431 v -0.277 c 0,-1.054 -0.287,-1.881 -0.865,-2.468 -0.581,-0.589 -1.44,-0.882 -2.578,-0.882 -1.517,0 -2.868,0.378 -4.056,1.139 l -0.648,-1.877 c 1.435,-0.902 3.146,-1.353 5.135,-1.353 1.935,0 3.401,0.533 4.39,1.599 0.988,1.064 1.48,2.602 1.48,4.61 z m -2.796,3.936 v -2.459 c -2.398,0 -4.062,0.288 -4.998,0.861 -0.931,0.572 -1.397,1.363 -1.397,2.367 0,0.79 0.236,1.404 0.701,1.848 0.466,0.448 1.082,0.672 1.849,0.672 1.088,0 1.999,-0.338 2.738,-1.008 0.739,-0.673 1.107,-1.429 1.107,-2.281 z m 7.255,5.073 v -10.144 c 0,-1.927 -0.041,-3.506 -0.122,-4.735 h 2.521 l 0.183,2.983 c 0.38,-1.046 0.959,-1.863 1.737,-2.447 0.78,-0.583 1.624,-0.875 2.537,-0.875 0.193,0 0.451,0.022 0.769,0.063 v 2.703 c -0.279,-0.06 -0.605,-0.093 -0.985,-0.093 -1.035,0 -1.921,0.407 -2.664,1.216 -0.743,0.811 -1.117,1.962 -1.117,3.459 v 7.87 z m 11.775,-17.646 2.798,-0.831 v 3.598 h 3.967 v 2.182 h -3.967 v 7.748 c 0,1.034 0.169,1.777 0.502,2.232 0.334,0.456 0.861,0.688 1.588,0.688 0.666,0 1.21,-0.062 1.629,-0.185 l 0.124,2.153 c -0.708,0.266 -1.557,0.401 -2.552,0.401 -2.727,0 -4.089,-1.703 -4.089,-5.107 v -7.93 h -2.337 v -2.182 h 2.337 z m 16.632,17.646 v -21.889 h 2.862 v 9.377 h 0.059 c 0.503,-0.84 1.204,-1.502 2.101,-1.983 0.898,-0.481 1.814,-0.723 2.756,-0.723 1.537,0 2.819,0.549 3.844,1.65 1.028,1.102 1.538,2.716 1.538,4.838 v 8.73 h -2.857 v -8.424 c 0,-1.405 -0.305,-2.495 -0.909,-3.269 -0.604,-0.773 -1.482,-1.157 -2.63,-1.157 -0.973,0 -1.864,0.363 -2.681,1.096 -0.813,0.734 -1.221,1.68 -1.221,2.838 v 8.916 z m 31.698,-7.593 c 0,1.599 -0.333,2.997 -1.002,4.196 -0.664,1.199 -1.597,2.12 -2.795,2.766 -1.202,0.647 -2.495,0.971 -3.888,0.971 -2.176,0 -3.966,-0.715 -5.383,-2.134 -1.413,-1.42 -2.118,-3.259 -2.118,-5.523 0,-2.408 0.73,-4.329 2.191,-5.758 1.461,-1.432 3.299,-2.143 5.524,-2.143 2.214,0 4.013,0.707 5.394,2.126 1.385,1.42 2.077,3.253 2.077,5.499 z m -12.268,0.184 c 0,1.629 0.435,2.973 1.308,4.033 0.871,1.06 1.962,1.592 3.275,1.592 1.343,0 2.462,-0.532 3.36,-1.598 0.896,-1.064 1.343,-2.44 1.343,-4.118 0,-1.55 -0.412,-2.871 -1.237,-3.962 -0.824,-1.093 -1.951,-1.636 -3.375,-1.636 -1.445,0 -2.581,0.538 -3.42,1.621 -0.833,1.08 -1.254,2.437 -1.254,4.068 z m 15.743,7.409 V 114.83 c 0,-1.649 -0.043,-3.013 -0.123,-4.088 h 2.489 l 0.216,2.427 c 1.105,-1.843 2.724,-2.766 4.855,-2.766 0.986,0 1.861,0.267 2.623,0.8 0.767,0.532 1.346,1.27 1.744,2.213 1.219,-2.007 2.919,-3.013 5.104,-3.013 1.474,0 2.689,0.559 3.642,1.674 0.953,1.119 1.429,2.753 1.429,4.906 v 8.638 h -2.796 v -8.298 c 0,-1.479 -0.283,-2.611 -0.852,-3.399 -0.57,-0.79 -1.382,-1.185 -2.44,-1.185 -0.91,0 -1.718,0.349 -2.432,1.053 -0.712,0.698 -1.07,1.603 -1.07,2.697 v 9.132 h -2.799 v -8.793 c 0,-1.262 -0.282,-2.26 -0.844,-2.992 -0.564,-0.734 -1.338,-1.097 -2.324,-1.097 -0.951,0 -1.791,0.401 -2.524,1.2 -0.733,0.798 -1.102,1.732 -1.102,2.795 v 8.887 z m 38.887,-6.857 h -10.789 c 0.042,1.61 0.536,2.84 1.491,3.695 0.954,0.855 2.188,1.287 3.705,1.287 1.647,0 3.094,-0.257 4.335,-0.769 l 0.493,2 c -1.467,0.654 -3.199,0.984 -5.198,0.984 -2.317,0 -4.158,-0.687 -5.533,-2.062 -1.372,-1.372 -2.06,-3.198 -2.06,-5.472 0,-2.277 0.663,-4.182 1.979,-5.719 1.317,-1.537 3.085,-2.305 5.306,-2.305 2.051,0 3.623,0.682 4.72,2.048 1.097,1.369 1.646,3.046 1.646,5.024 0,0.563 -0.031,0.993 -0.095,1.289 z m -10.759,-2.059 h 8.086 c 0,-1.281 -0.328,-2.314 -0.99,-3.098 -0.661,-0.785 -1.604,-1.175 -2.824,-1.175 -1.156,0 -2.114,0.39 -2.874,1.175 -0.756,0.784 -1.224,1.817 -1.398,3.098 z"
   style="fill:#ffffff;fill-opacity:1" />
        <g
   id="logo_horizontal_1_"
   style="fill:#ffffff;fill-opacity:1">
            <path
   id="logo_orange"
   d="m 7.253,100.081 54.854,-54.894 7.988,-7.988 7.988,7.988 40.493,40.491 -0.06,0.205 -0.798,2.35 -0.906,2.298 -1.02,2.242 -1.122,2.187 -1.02,1.769 L 70.095,53.175 C 51.09,72.194 32.086,91.214 13.082,110.232 10.887,107 8.849,103.672 7.253,100.081 Z"
   style="fill:#ffffff;fill-opacity:1" />
            <path
   id="logo_grey"
   d="m 70.096,0 c 38.61,0 70.095,31.487 70.095,70.099 0,38.606 -31.485,70.094 -70.095,70.094 -21.089,0 -40.05,-9.403 -52.916,-24.221 l 2.476,-2.489 1.799,-1.797 1.801,-1.804 1.802,-1.805 0.073,-0.069 c 10.811,12.799 26.962,20.955 44.965,20.955 32.424,0 58.866,-26.442 58.866,-58.864 0,-32.427 -26.442,-58.87 -58.866,-58.87 -32.425,0 -58.867,26.443 -58.867,58.87 0,4.365 0.485,8.62 1.395,12.719 L 8.718,86.733 3.504,91.95 C 1.235,85.066 0,77.724 0,70.099 0,31.487 31.486,0 70.096,0 Z"
   style="fill:#ffffff;fill-opacity:1" />
        </g>
        <g
   id="lettering"
   style="fill:#ffffff;fill-opacity:1">
            <path
   id="hab_1_"
   d="m 592.216,60.806 v 25.658 h 16.795 l 0.998,-0.008 0.961,-0.018 0.922,-0.032 0.887,-0.046 0.849,-0.055 0.813,-0.07 0.779,-0.079 0.737,-0.092 0.701,-0.104 0.662,-0.113 0.627,-0.127 0.585,-0.135 0.548,-0.146 0.506,-0.152 0.471,-0.163 0.416,-0.164 0.841,-0.392 0.796,-0.438 0.745,-0.482 0.704,-0.528 0.654,-0.575 0.617,-0.627 0.575,-0.677 0.536,-0.731 0.489,-0.769 0.418,-0.777 0.353,-0.792 0.287,-0.806 0.223,-0.821 0.161,-0.841 0.093,-0.863 0.034,-0.879 -0.046,-1.089 -0.135,-1.042 -0.224,-1.004 -0.312,-0.964 -0.4,-0.936 -0.492,-0.904 -0.587,-0.88 -0.679,-0.849 -0.76,-0.8 -0.832,-0.734 -0.904,-0.675 -0.977,-0.608 -1.057,-0.548 -1.133,-0.487 -1.22,-0.421 -1.307,-0.356 -0.443,-0.098 -0.504,-0.094 -0.551,-0.09 -0.606,-0.083 -0.656,-0.08 -0.7,-0.072 -0.748,-0.065 -0.796,-0.058 -0.848,-0.05 -0.889,-0.046 -0.934,-0.038 -0.982,-0.03 -1.028,-0.024 -1.071,-0.018 -1.115,-0.011 -1.165,-0.002 z m 0,-31.938 v 20.857 h 11.729 l 0.951,-0.006 0.913,-0.016 0.879,-0.03 0.843,-0.038 0.808,-0.051 0.777,-0.062 0.742,-0.071 0.703,-0.082 0.67,-0.093 0.635,-0.103 0.597,-0.113 0.558,-0.123 0.524,-0.133 0.486,-0.137 0.447,-0.148 0.404,-0.152 0.807,-0.352 0.747,-0.392 0.698,-0.433 0.655,-0.475 0.61,-0.523 0.572,-0.562 0.53,-0.613 0.492,-0.66 0.443,-0.692 0.38,-0.704 0.32,-0.725 0.263,-0.74 0.205,-0.76 0.147,-0.785 0.089,-0.811 0.03,-0.829 -0.052,-1.116 -0.144,-1.026 -0.24,-0.944 -0.328,-0.871 -0.418,-0.81 -0.51,-0.747 -0.608,-0.701 -0.714,-0.66 -0.365,-0.277 -0.415,-0.275 -0.452,-0.262 -0.486,-0.246 -0.526,-0.23 -0.561,-0.214 -0.594,-0.197 -0.637,-0.176 -0.676,-0.16 -0.71,-0.138 -0.746,-0.117 -0.79,-0.099 -0.822,-0.078 -0.856,-0.053 -0.9,-0.034 -0.942,-0.012 z m 20.325,-10.354 0.984,0.097 0.954,0.114 0.925,0.13 0.891,0.151 0.865,0.167 0.833,0.186 0.808,0.208 0.773,0.227 0.748,0.246 0.719,0.268 0.698,0.292 1.282,0.619 1.23,0.708 1.162,0.792 1.092,0.868 1.019,0.953 0.949,1.031 0.871,1.106 0.788,1.166 0.377,0.621 0.345,0.619 0.323,0.627 0.3,0.639 0.274,0.645 0.252,0.652 0.226,0.662 0.207,0.67 0.175,0.676 0.158,0.685 0.13,0.69 0.108,0.699 0.081,0.705 0.061,0.71 0.034,0.719 0.016,0.737 -0.046,1.351 -0.125,1.335 -0.215,1.308 -0.298,1.283 -0.385,1.248 -0.471,1.219 -0.55,1.186 -0.636,1.162 -0.731,1.12 -0.803,1.057 -0.884,1.004 -0.963,0.948 -1.039,0.888 -0.542,0.404 1.004,0.441 1.257,0.617 1.169,0.641 1.093,0.668 1.006,0.697 0.929,0.728 0.847,0.76 0.791,0.793 0.747,0.832 0.7,0.871 0.651,0.908 0.605,0.947 0.557,0.984 0.519,1.027 0.456,1.056 0.394,1.081 0.331,1.102 0.277,1.123 0.208,1.144 0.153,1.165 0.091,1.185 0.03,1.202 -0.03,1.216 -0.081,1.194 -0.143,1.173 -0.199,1.157 -0.256,1.133 -0.311,1.108 -0.369,1.088 -0.426,1.068 -0.485,1.039 -0.54,1.016 -0.594,0.988 -0.652,0.966 -0.704,0.937 -0.758,0.912 -0.813,0.886 -0.869,0.864 -0.925,0.826 -0.962,0.77 -1.002,0.718 -1.038,0.667 -1.075,0.611 -1.112,0.556 -1.146,0.503 -1.183,0.451 -1.219,0.394 -1.248,0.342 -1.285,0.285 -1.315,0.236 -1.349,0.181 -1.381,0.129 -1.413,0.077 -1.43,0.029 H 581.346 V 18.3 h 25.826 l 1.127,0.008 1.107,0.026 1.075,0.041 1.046,0.062 z M 433.672,18.311 h 11.061 V 50.144 H 479.91 V 18.311 h 11.028 V 97.63 H 479.91 V 61.05 h -35.177 v 36.58 h -11.061 z m 89.223,50.028 H 549.82 L 536.4,39.846 Z m 31.879,10.805 H 517.91 l -8.751,18.46 H 496.915 L 534.395,18.3 h 4.043 l 36.949,79.304 h -11.88 l -3.161,-6.635 z"
   style="fill:#ffffff;fill-opacity:1" />
            <g
   id="open_1_"
   style="fill:#ffffff;fill-opacity:1">
                <path
   d="m 191.027,36.277 1.654,0.039 1.622,0.113 1.591,0.19 1.559,0.267 1.526,0.343 1.496,0.421 1.46,0.498 1.425,0.577 1.388,0.65 1.354,0.729 1.315,0.803 1.278,0.88 1.24,0.953 1.201,1.029 1.163,1.1 1.129,1.179 0.973,1.13 0.908,1.151 0.846,1.18 0.785,1.209 0.723,1.233 0.661,1.262 0.598,1.287 0.535,1.314 0.472,1.338 0.408,1.363 0.346,1.385 0.283,1.412 0.219,1.432 0.156,1.457 0.093,1.477 0.032,1.504 -0.034,1.502 -0.1,1.486 -0.166,1.462 -0.232,1.444 -0.301,1.419 -0.366,1.399 -0.434,1.374 -0.5,1.351 -0.568,1.326 -0.633,1.301 -0.698,1.274 -0.765,1.25 -0.831,1.222 -0.894,1.197 -0.958,1.168 -1.024,1.147 -1.084,1.103 -1.126,1.038 -1.166,0.966 -1.205,0.901 -1.246,0.826 -1.283,0.756 -1.322,0.683 -1.359,0.616 -1.399,0.537 -1.432,0.468 -1.467,0.395 -1.501,0.324 -1.538,0.248 -1.568,0.178 -1.604,0.109 -1.635,0.036 -1.646,-0.036 -1.611,-0.107 -1.576,-0.18 -1.542,-0.248 -1.508,-0.324 -1.472,-0.395 -1.434,-0.468 -1.397,-0.537 -1.362,-0.616 -1.324,-0.683 -1.283,-0.756 -1.243,-0.828 -1.205,-0.899 -1.164,-0.966 -1.124,-1.04 -1.079,-1.101 -1.024,-1.147 -0.959,-1.168 -0.894,-1.197 -0.828,-1.222 -0.765,-1.25 -0.697,-1.276 -0.632,-1.303 -0.565,-1.324 -0.499,-1.35 -0.431,-1.375 -0.366,-1.399 -0.298,-1.42 -0.232,-1.443 -0.165,-1.462 -0.098,-1.484 -0.032,-1.502 0.03,-1.496 0.093,-1.472 0.157,-1.452 0.219,-1.428 0.282,-1.406 0.344,-1.384 0.41,-1.36 0.472,-1.332 0.533,-1.311 0.6,-1.284 0.66,-1.261 0.725,-1.23 0.784,-1.206 0.847,-1.179 0.908,-1.152 0.972,-1.127 1.124,-1.183 1.164,-1.108 1.2,-1.034 1.241,-0.958 1.277,-0.885 1.318,-0.809 1.354,-0.732 1.39,-0.655 1.424,-0.579 1.462,-0.501 1.496,-0.424 1.53,-0.343 1.56,-0.271 1.595,-0.191 1.626,-0.113 z m 0,10.343 -1.014,0.023 -0.991,0.07 -0.969,0.117 -0.949,0.165 -0.93,0.21 -0.908,0.258 -0.893,0.303 -0.872,0.351 -0.858,0.397 -0.839,0.443 -0.825,0.493 -0.808,0.542 -0.794,0.589 -0.778,0.641 -0.764,0.688 -0.747,0.741 -0.719,0.774 -0.667,0.79 -0.62,0.806 -0.571,0.827 -0.527,0.843 -0.478,0.862 -0.434,0.879 -0.386,0.901 -0.343,0.919 -0.297,0.936 -0.25,0.96 -0.206,0.984 -0.162,1.003 -0.114,1.025 -0.069,1.05 -0.022,1.08 0.008,0.687 0.033,0.688 0.05,0.679 0.075,0.674 0.093,0.669 0.115,0.662 0.135,0.654 0.159,0.653 0.175,0.645 0.199,0.64 0.218,0.633 0.241,0.628 0.261,0.624 0.283,0.618 0.303,0.614 0.32,0.598 0.704,1.18 0.755,1.096 0.81,1.023 0.868,0.951 0.925,0.879 0.985,0.813 1.043,0.746 1.12,0.685 0.555,0.303 0.576,0.291 0.584,0.27 0.591,0.25 0.595,0.23 0.602,0.209 0.61,0.191 0.616,0.17 0.621,0.149 0.633,0.131 0.638,0.111 0.644,0.09 0.652,0.07 0.664,0.051 0.669,0.031 0.676,0.01 0.684,-0.01 0.678,-0.031 0.671,-0.051 0.66,-0.07 0.649,-0.09 0.645,-0.113 0.637,-0.129 0.628,-0.149 0.617,-0.17 0.613,-0.191 0.605,-0.211 0.599,-0.228 0.59,-0.25 0.586,-0.27 0.579,-0.291 0.553,-0.301 1.1,-0.683 1.034,-0.744 0.977,-0.813 0.918,-0.881 0.863,-0.953 0.809,-1.021 0.753,-1.1 0.704,-1.178 0.312,-0.594 0.303,-0.615 0.28,-0.618 0.26,-0.624 0.237,-0.629 0.219,-0.635 0.198,-0.642 0.176,-0.643 0.155,-0.652 0.137,-0.656 0.113,-0.664 0.096,-0.668 0.072,-0.674 0.053,-0.681 0.032,-0.688 0.011,-0.686 -0.024,-1.076 -0.071,-1.05 -0.116,-1.027 -0.161,-1.002 -0.208,-0.982 -0.252,-0.961 -0.298,-0.939 -0.343,-0.918 -0.389,-0.899 -0.434,-0.881 -0.481,-0.862 -0.527,-0.843 -0.573,-0.828 -0.621,-0.806 -0.668,-0.791 -0.716,-0.773 -0.75,-0.741 -0.763,-0.688 -0.78,-0.641 -0.793,-0.589 -0.809,-0.541 -0.825,-0.494 -0.838,-0.444 -0.856,-0.396 -0.874,-0.351 -0.891,-0.303 -0.909,-0.258 -0.925,-0.21 -0.948,-0.165 -0.967,-0.117 -0.988,-0.07 z m 165.769,35.077 -0.801,1.401 -0.835,1.332 -0.87,1.261 -0.909,1.194 -0.945,1.123 -0.985,1.053 -1.018,0.978 -1.043,0.91 -1.076,0.854 -1.109,0.795 -1.142,0.742 -1.175,0.683 -1.206,0.629 -1.241,0.571 -1.259,0.511 -0.66,0.241 -0.657,0.22 -0.669,0.205 -0.677,0.19 -0.687,0.176 -0.696,0.16 -0.706,0.144 -0.717,0.131 -0.727,0.113 -0.734,0.098 -0.743,0.084 -0.751,0.07 -0.764,0.053 -0.769,0.037 -0.78,0.024 -0.797,0.008 -1.729,-0.038 -1.694,-0.109 -1.653,-0.18 -1.608,-0.254 -1.566,-0.328 -1.521,-0.402 -1.476,-0.479 -1.431,-0.55 -1.386,-0.627 -1.336,-0.701 -1.291,-0.778 -1.239,-0.849 -1.192,-0.926 -1.14,-0.996 -1.088,-1.071 -1.031,-1.132 -0.97,-1.174 -0.904,-1.186 -0.843,-1.209 -0.78,-1.23 -0.722,-1.25 -0.658,-1.274 -0.597,-1.291 -0.532,-1.31 -0.473,-1.331 -0.408,-1.353 -0.346,-1.369 -0.281,-1.387 -0.22,-1.406 -0.156,-1.423 -0.094,-1.439 -0.03,-1.452 0.025,-1.375 0.08,-1.356 0.132,-1.339 0.187,-1.321 0.237,-1.305 0.294,-1.286 0.346,-1.268 0.402,-1.249 0.452,-1.231 0.507,-1.21 0.56,-1.193 0.614,-1.17 0.663,-1.152 0.717,-1.131 0.769,-1.112 0.824,-1.091 1.089,-1.332 1.148,-1.252 1.196,-1.173 1.247,-1.087 1.295,-1.003 1.346,-0.916 1.391,-0.83 1.44,-0.741 1.484,-0.657 1.531,-0.566 1.573,-0.481 1.619,-0.388 1.656,-0.304 1.699,-0.216 1.74,-0.128 1.779,-0.044 1.818,0.044 1.778,0.132 1.737,0.221 1.696,0.311 1.655,0.398 1.612,0.49 1.569,0.579 1.524,0.672 1.475,0.759 1.431,0.848 1.382,0.937 1.335,1.025 1.284,1.11 1.236,1.198 1.185,1.282 1.133,1.365 0.77,1.02 0.722,1.051 0.674,1.082 0.624,1.115 0.571,1.141 0.524,1.174 0.474,1.205 0.426,1.234 0.373,1.259 0.325,1.29 0.275,1.314 0.227,1.347 0.176,1.371 0.129,1.4 0.079,1.425 0.069,3.164 h -49.54 l 0.039,0.498 0.126,1.069 0.169,1.041 0.209,1.009 0.252,0.981 0.292,0.954 0.334,0.927 0.372,0.898 0.415,0.871 0.455,0.844 0.499,0.822 0.538,0.795 0.581,0.772 0.623,0.746 0.67,0.726 0.695,0.69 0.713,0.644 0.731,0.596 0.749,0.553 0.767,0.504 0.786,0.463 0.802,0.416 0.825,0.373 0.842,0.33 0.864,0.285 0.885,0.24 0.909,0.201 0.927,0.155 0.952,0.111 0.975,0.068 0.999,0.022 0.983,-0.022 0.974,-0.066 0.964,-0.108 0.957,-0.148 0.946,-0.193 0.941,-0.237 0.934,-0.279 0.925,-0.318 0.905,-0.364 0.879,-0.388 0.838,-0.416 0.802,-0.44 0.763,-0.465 0.726,-0.488 0.687,-0.514 0.648,-0.533 0.633,-0.584 0.658,-0.679 0.685,-0.782 0.708,-0.881 0.731,-0.982 0.752,-1.084 0.772,-1.181 1.641,-2.651 8.835,4.725 z m -11.011,-26.634 -0.557,-0.866 -0.586,-0.79 -0.637,-0.741 -0.692,-0.712 -0.743,-0.679 -0.795,-0.643 -0.848,-0.611 -0.902,-0.574 -0.959,-0.54 -1.024,-0.509 -0.515,-0.23 -0.524,-0.221 -0.529,-0.204 -0.528,-0.188 -0.534,-0.174 -0.535,-0.16 -0.538,-0.143 -0.543,-0.129 -0.546,-0.114 -0.546,-0.099 -0.551,-0.082 -0.556,-0.068 -0.557,-0.055 -0.559,-0.038 -0.564,-0.02 -0.563,-0.008 -0.941,0.019 -0.914,0.057 -0.895,0.094 -0.875,0.133 -0.857,0.168 -0.839,0.209 -0.821,0.242 -0.805,0.282 -0.79,0.315 -0.768,0.356 -0.756,0.392 -0.739,0.432 -0.727,0.469 -0.708,0.508 -0.696,0.546 -0.679,0.584 -0.469,0.441 -0.454,0.469 -0.442,0.499 -0.429,0.528 -0.418,0.555 -0.402,0.586 -0.392,0.616 -0.378,0.648 -0.366,0.678 -0.351,0.708 -0.338,0.738 -0.323,0.771 -0.31,0.801 -0.154,0.432 h 36.523 l -0.145,-0.459 -0.427,-1.169 -0.461,-1.092 -0.496,-1.015 z m -85.248,-18.786 1.653,0.039 1.623,0.113 1.59,0.19 1.56,0.267 1.526,0.343 1.495,0.421 1.46,0.498 1.426,0.577 1.388,0.65 1.353,0.729 1.316,0.803 1.278,0.88 1.239,0.953 1.202,1.029 1.163,1.1 1.129,1.179 0.973,1.13 0.907,1.151 0.847,1.18 0.785,1.209 0.723,1.233 0.661,1.262 0.598,1.287 0.535,1.314 0.471,1.338 0.409,1.363 0.345,1.385 0.284,1.412 0.218,1.432 0.157,1.457 0.092,1.477 0.033,1.504 -0.035,1.502 -0.099,1.486 -0.166,1.462 -0.233,1.444 -0.3,1.419 -0.367,1.399 -0.433,1.374 -0.5,1.351 -0.569,1.326 -0.632,1.301 -0.699,1.274 -0.764,1.25 -0.831,1.222 -0.894,1.197 -0.958,1.168 -1.024,1.147 -1.084,1.103 -1.126,1.038 -1.166,0.966 -1.205,0.901 -1.246,0.826 -1.284,0.756 -1.321,0.683 -1.359,0.616 -1.399,0.537 -1.432,0.468 -1.467,0.395 -1.501,0.324 -1.538,0.248 -1.569,0.178 -1.603,0.109 -1.635,0.036 -1.646,-0.036 -1.612,-0.107 -1.575,-0.18 -1.542,-0.248 -1.509,-0.324 -1.471,-0.395 -1.434,-0.468 -1.397,-0.537 -1.363,-0.616 -1.323,-0.683 -1.283,-0.756 -1.243,-0.828 -1.205,-0.899 -1.164,-0.966 -0.028,-0.026 v 28.169 H 230.088 V 67.479 l -0.006,-0.297 0.006,-0.314 v -0.159 h 0.003 l 0.02,-1.023 0.094,-1.472 0.156,-1.452 0.22,-1.428 0.281,-1.406 0.345,-1.384 0.41,-1.36 0.472,-1.332 0.533,-1.311 0.6,-1.284 0.66,-1.261 0.724,-1.23 0.785,-1.206 0.846,-1.179 0.909,-1.152 0.972,-1.127 1.124,-1.183 1.163,-1.108 1.2,-1.034 1.242,-0.958 1.277,-0.885 1.317,-0.809 1.355,-0.732 1.39,-0.655 1.423,-0.579 1.463,-0.501 1.495,-0.424 1.531,-0.343 1.56,-0.271 1.595,-0.191 1.626,-0.113 z m -19.795,31.705 v -1.151 l 0.013,-0.621 0.069,-1.05 0.114,-1.025 0.162,-1.003 0.206,-0.984 0.25,-0.96 0.297,-0.936 0.342,-0.919 0.387,-0.901 0.434,-0.879 0.478,-0.862 0.527,-0.843 0.571,-0.827 0.62,-0.806 0.667,-0.79 0.719,-0.774 0.747,-0.741 0.763,-0.688 0.779,-0.641 0.794,-0.589 0.808,-0.542 0.824,-0.493 0.838,-0.443 0.86,-0.397 0.872,-0.351 0.892,-0.303 0.909,-0.258 0.929,-0.21 0.95,-0.165 0.969,-0.117 0.99,-0.07 1.015,-0.023 1.008,0.023 0.988,0.07 0.967,0.117 0.947,0.165 0.926,0.21 0.909,0.258 0.891,0.303 0.874,0.351 0.855,0.396 0.839,0.444 0.824,0.494 0.81,0.541 0.793,0.589 0.779,0.641 0.764,0.688 0.75,0.741 0.716,0.773 0.668,0.791 0.621,0.806 0.573,0.828 0.526,0.843 0.482,0.862 0.433,0.881 0.39,0.899 0.343,0.918 0.298,0.939 0.252,0.961 0.208,0.982 0.161,1.002 0.116,1.027 0.07,1.05 0.025,1.076 -0.011,0.686 -0.032,0.688 -0.053,0.681 -0.073,0.674 -0.095,0.668 -0.113,0.664 -0.137,0.656 -0.155,0.652 -0.176,0.643 -0.198,0.642 -0.219,0.635 -0.237,0.629 -0.26,0.624 -0.28,0.618 -0.303,0.615 -0.313,0.594 -0.704,1.178 -0.753,1.1 -0.808,1.021 -0.863,0.953 -0.918,0.881 -0.977,0.813 -1.034,0.744 -1.101,0.683 -0.552,0.301 -0.58,0.291 -0.585,0.27 -0.59,0.25 -0.599,0.228 -0.605,0.211 -0.614,0.191 -0.616,0.17 -0.628,0.149 -0.638,0.129 -0.644,0.113 -0.65,0.09 -0.66,0.07 -0.671,0.051 -0.677,0.031 -0.684,0.01 -0.677,-0.01 -0.669,-0.031 -0.664,-0.051 -0.651,-0.07 -0.645,-0.09 -0.637,-0.111 -0.633,-0.131 -0.621,-0.149 -0.616,-0.17 -0.611,-0.191 -0.601,-0.209 -0.595,-0.23 -0.591,-0.25 -0.584,-0.27 -0.576,-0.291 -0.556,-0.303 -1.119,-0.685 -1.044,-0.746 -0.984,-0.813 -0.925,-0.879 -0.868,-0.951 -0.811,-1.023 -0.755,-1.096 -0.704,-1.18 -0.319,-0.598 -0.304,-0.614 -0.282,-0.618 -0.262,-0.624 -0.24,-0.628 -0.219,-0.633 -0.198,-0.64 -0.176,-0.645 -0.158,-0.653 -0.136,-0.654 -0.114,-0.662 -0.094,-0.669 -0.074,-0.674 -0.051,-0.679 z M 395.023,36.364 c -4.621,0 -10.78,1.114 -14.741,3.4 -4.006,2.314 -6.907,5.477 -8.626,9.401 -1.692,3.871 -2.514,9.668 -2.514,17.724 v 30.725 h 10.451 V 69.016 c 0,-6.421 0.271,-10.736 0.806,-12.826 0.809,-3.431 2.311,-5.752 4.6,-7.124 2.375,-1.423 5.184,-2.601 10.022,-2.601 4.836,0 7.59,1.186 9.965,2.61 2.289,1.371 3.791,3.693 4.6,7.124 0.535,2.09 0.807,6.405 0.807,12.824 v 28.6 h 10.451 V 66.897 c 0,-8.055 -0.823,-13.852 -2.515,-17.723 -1.719,-3.924 -4.62,-7.087 -8.626,-9.402 -3.961,-2.287 -10.058,-3.408 -14.68,-3.408 z"
   style="fill:#ffffff;fill-opacity:1"
   id="path1" />
            </g>
        </g>
    </g>
<path
   sodipodi:type="star"
   style="fill:#ffffff;stroke:#ffffff;stroke-width:10"
   id="path2"
   inkscape:flatsided="true"
   sodipodi:sides="3"
   sodipodi:cx="80.5"
   sodipodi:cy="185"
   sodipodi:r1="30.450783"
   sodipodi:r2="15.219231"
   sodipodi:arg1="-2.6265198"
   sodipodi:arg2="-1.5793221"
   inkscape:rounded="0"
   inkscape:randomized="0"
   d="m 53.999998,170 52.740382,-0.44967 -25.980762,45.89935 z"
   inkscape:transform-center-x="3.2517604"
   inkscape:transform-center-y="-4.6177858" /></svg>
